<svg width="22" height="22" viewBox="0 0 22 22" fill="none" xmlns="http://www.w3.org/2000/svg">
<g filter="url(#filter0_d_646_2190)">
<path d="M10 1C5.58191 1 2 4.58157 2 9C2 13.4184 5.58191 17 10 17C14.4181 17 18 13.4184 18 9C18 4.58157 14.4181 1 10 1ZM12.2261 7.11409C12.6682 7.11409 13.0449 7.62922 13.1948 8.35513C13.2212 8.48557 13.1878 8.62087 13.104 8.72417C13.0202 8.82713 12.8939 8.88765 12.7614 8.88765H11.6915C11.5583 8.88765 11.4323 8.82783 11.3485 8.72452C11.2643 8.62157 11.2313 8.48557 11.2581 8.35548C11.4077 7.62922 11.7843 7.11409 12.2261 7.11409ZM7.77391 7.11409C8.216 7.11409 8.5927 7.62957 8.74226 8.35513C8.76904 8.48557 8.73565 8.62087 8.65148 8.72417C8.56765 8.82713 8.44139 8.88765 8.30887 8.88765H7.23896C7.10609 8.88765 6.98017 8.82783 6.896 8.72452C6.81217 8.62122 6.77878 8.48557 6.80557 8.35513C6.95478 7.62957 7.33148 7.11409 7.77391 7.11409ZM10 14.1231C7.91757 14.1231 6.09913 12.9927 5.12313 11.3127C5.04348 11.1757 5.04348 11.007 5.12243 10.8696C5.20139 10.7322 5.34748 10.6483 5.50609 10.6483H14.4939C14.6518 10.6483 14.7983 10.7329 14.8772 10.8699C14.9569 11.007 14.9569 11.176 14.8772 11.3123C13.9009 12.9927 12.0821 14.1231 10 14.1231Z" fill="#5FA85B"/>
</g>
<defs>
<filter id="filter0_d_646_2190" x="0.4" y="0.4" width="21.2" height="21.2" filterUnits="userSpaceOnUse" color-interpolation-filters="sRGB">
<feFlood flood-opacity="0" result="BackgroundImageFix"/>
<feColorMatrix in="SourceAlpha" type="matrix" values="0 0 0 0 0 0 0 0 0 0 0 0 0 0 0 0 0 0 127 0" result="hardAlpha"/>
<feOffset dx="1" dy="2"/>
<feGaussianBlur stdDeviation="1.3"/>
<feComposite in2="hardAlpha" operator="out"/>
<feColorMatrix type="matrix" values="0 0 0 0 0 0 0 0 0 0 0 0 0 0 0 0 0 0 0.12 0"/>
<feBlend mode="normal" in2="BackgroundImageFix" result="effect1_dropShadow_646_2190"/>
<feBlend mode="normal" in="SourceGraphic" in2="effect1_dropShadow_646_2190" result="shape"/>
</filter>
</defs>
</svg>
