<svg width="24" height="24" viewBox="0 0 24 24" fill="none" xmlns="http://www.w3.org/2000/svg">
<path d="M12 0C5.38125 0 0 5.38125 0 12C0 18.6188 5.38125 24 12 24C18.6188 24 24 18.6188 24 12C24 5.38125 18.6188 0 12 0Z" fill="#FC471E"/>
<path fill-rule="evenodd" clip-rule="evenodd" d="M15.4446 5.92286C15.4337 5.99171 15.428 6.06236 15.428 6.13436C15.428 6.86125 16.0037 7.45053 16.7137 7.45053C17.4238 7.45053 17.9994 6.86125 17.9994 6.13436C17.9994 5.40744 17.4238 4.81816 16.7137 4.81816C16.3974 4.81816 16.1076 4.93516 15.8836 5.12921L12.5448 4.28613L11.338 9.22765C9.73264 9.33582 8.28887 9.83348 7.1997 10.5848C6.89044 10.2744 6.46679 10.0829 5.99944 10.0829C5.05267 10.0829 4.28516 10.8686 4.28516 11.8378C4.28516 12.5124 4.65686 13.098 5.20202 13.3917C5.16263 13.601 5.1423 13.8146 5.1423 14.0315C5.1423 16.6969 8.21233 18.8576 11.9994 18.8576C15.7866 18.8576 18.8566 16.6969 18.8566 14.0315C18.8566 13.8146 18.8363 13.601 18.7968 13.3917C19.342 13.098 19.7137 12.5124 19.7137 11.8378C19.7137 10.8686 18.9462 10.0829 17.9994 10.0829C17.5321 10.0829 17.1084 10.2744 16.7992 10.5848C15.6126 9.76628 14.0051 9.24873 12.2263 9.2081L13.1684 5.35022L15.4446 5.92286ZM8.99944 14.4703C9.7095 14.4703 10.2852 13.881 10.2852 13.154C10.2852 12.4271 9.7095 11.8378 8.99944 11.8378C8.28938 11.8378 7.71373 12.4271 7.71373 13.154C7.71373 13.881 8.28938 14.4703 8.99944 14.4703ZM14.9994 14.4703C15.7095 14.4703 16.2852 13.881 16.2852 13.154C16.2852 12.4271 15.7095 11.8378 14.9994 11.8378C14.2894 11.8378 13.7137 12.4271 13.7137 13.154C13.7137 13.881 14.2894 14.4703 14.9994 14.4703ZM9.23713 15.8601C9.04024 15.7257 8.77418 15.7802 8.64287 15.9818C8.51156 16.1834 8.56479 16.4558 8.76167 16.5902C9.69433 17.2267 10.8469 17.5449 11.9994 17.5449C13.152 17.5449 14.3046 17.2267 15.2371 16.5902C15.4341 16.4558 15.4873 16.1834 15.356 15.9818C15.2247 15.7802 14.9586 15.7257 14.7617 15.8601C13.973 16.3983 12.9863 16.6675 11.9994 16.6675C11.4143 16.6675 10.829 16.5728 10.2852 16.3836C9.91196 16.2536 9.55813 16.0791 9.23713 15.8601Z" fill="white"/>
</svg>
