<svg width="426" height="514" viewBox="0 0 426 514" fill="none" xmlns="http://www.w3.org/2000/svg">
<path d="M426 28L421 25.1132V30.8868L426 28ZM0 255.5H12.736V254.5H0V255.5ZM38.208 255.5H63.68V254.5H38.208V255.5ZM89.1519 255.5H114.624V254.5H89.1519V255.5ZM140.096 255.5H165.568V254.5H140.096V255.5ZM191.04 255.5H203.776V254.5H191.04V255.5ZM203.776 255.5C208.47 255.5 212.276 251.694 212.276 247H211.276C211.276 251.142 207.918 254.5 203.776 254.5V255.5ZM212.276 247V236.45H211.276V247H212.276ZM212.276 215.35V194.25H211.276V215.35H212.276ZM212.276 173.15V152.05H211.276V173.15H212.276ZM212.276 130.95V109.85H211.276V130.95H212.276ZM212.276 88.75V67.65H211.276V88.75H212.276ZM212.276 46.55V36H211.276V46.55H212.276ZM212.276 36C212.276 31.8579 215.634 28.5 219.776 28.5V27.5C215.081 27.5 211.276 31.3056 211.276 36H212.276ZM219.776 28.5H232.665V27.5H219.776V28.5ZM258.443 28.5H284.221V27.5H258.443V28.5ZM309.999 28.5H335.777V27.5H309.999V28.5ZM361.555 28.5H387.333V27.5H361.555V28.5ZM413.111 28.5H421.5V27.5H413.111V28.5Z" fill="#2A2B2A"/>
<path d="M426 189L421 186.113V191.887L426 189ZM0 255.5H12.736V254.5H0V255.5ZM38.208 255.5H63.68V254.5H38.208V255.5ZM89.1519 255.5H114.624V254.5H89.1519V255.5ZM140.096 255.5H165.568V254.5H140.096V255.5ZM191.04 255.5H203.776V254.5H191.04V255.5ZM203.776 255.5C208.47 255.5 212.276 251.694 212.276 247H211.276C211.276 251.142 207.918 254.5 203.776 254.5V255.5ZM212.276 247V234.5H211.276V247H212.276ZM212.276 209.5V197H211.276V209.5H212.276ZM212.276 197C212.276 192.858 215.634 189.5 219.776 189.5V188.5C215.081 188.5 211.276 192.306 211.276 197H212.276ZM219.776 189.5H232.665V188.5H219.776V189.5ZM258.443 189.5H284.221V188.5H258.443V189.5ZM309.999 189.5H335.777V188.5H309.999V189.5ZM361.555 189.5H387.333V188.5H361.555V189.5ZM413.111 189.5H421.5V188.5H413.111V189.5Z" fill="#2A2B2A"/>
<path d="M426 347L421 349.887V344.113L426 347ZM0 254.5H12.736V255.5H0V254.5ZM38.208 254.5H63.68V255.5H38.208V254.5ZM89.1519 254.5H114.624V255.5H89.1519V254.5ZM140.096 254.5H165.568V255.5H140.096V254.5ZM191.04 254.5H203.776V255.5H191.04V254.5ZM203.776 254.5C208.47 254.5 212.276 258.306 212.276 263H211.276C211.276 258.858 207.918 255.5 203.776 255.5V254.5ZM212.276 263V272.5H211.276V263H212.276ZM212.276 291.5V310.5H211.276V291.5H212.276ZM212.276 329.5V339H211.276V329.5H212.276ZM212.276 339C212.276 343.142 215.634 346.5 219.776 346.5V347.5C215.081 347.5 211.276 343.694 211.276 339H212.276ZM219.776 346.5H232.665V347.5H219.776V346.5ZM258.443 346.5H284.221V347.5H258.443V346.5ZM309.999 346.5H335.777V347.5H309.999V346.5ZM361.555 346.5H387.333V347.5H361.555V346.5ZM413.111 346.5H421.5V347.5H413.111V346.5Z" fill="#2A2B2A"/>
<path d="M426 511L421 513.887V508.113L426 511ZM0 254.5H12.736V255.5H0V254.5ZM38.208 254.5H63.68V255.5H38.208V254.5ZM89.1519 254.5H114.624V255.5H89.1519V254.5ZM140.096 254.5H165.568V255.5H140.096V254.5ZM191.04 254.5H203.776V255.5H191.04V254.5ZM203.776 254.5C208.47 254.5 212.276 258.306 212.276 263H211.276C211.276 258.858 207.918 255.5 203.776 255.5V254.5ZM212.276 263V275H211.276V263H212.276ZM212.276 299V323H211.276V299H212.276ZM212.276 347V371H211.276V347H212.276ZM212.276 395V419H211.276V395H212.276ZM212.276 443V467H211.276V443H212.276ZM212.276 491V503H211.276V491H212.276ZM212.276 503C212.276 507.142 215.634 510.5 219.776 510.5V511.5C215.081 511.5 211.276 507.694 211.276 503H212.276ZM219.776 510.5H232.665V511.5H219.776V510.5ZM258.443 510.5H284.221V511.5H258.443V510.5ZM309.999 510.5H335.777V511.5H309.999V510.5ZM361.555 510.5H387.333V511.5H361.555V510.5ZM413.111 510.5H421.5V511.5H413.111V510.5Z" fill="#2A2B2A"/>
<path d="M293.036 11V1.2H294.212V11H293.036ZM296.598 11V5.05H295.548V4.056H296.598V2.852C296.598 2.18 296.766 1.69 297.102 1.382C297.438 1.074 297.928 0.92 298.572 0.92H299.272V1.928H298.754C298.399 1.928 298.147 2.00267 297.998 2.152C297.849 2.292 297.774 2.53467 297.774 2.88V4.056H299.482V5.05H297.774V11H296.598ZM304.657 11V1.2H307.821C308.586 1.2 309.212 1.326 309.697 1.578C310.182 1.83 310.542 2.17533 310.775 2.614C311.008 3.05267 311.125 3.538 311.125 4.07C311.125 4.686 310.957 5.24133 310.621 5.736C310.294 6.23067 309.781 6.58067 309.081 6.786L311.223 11H309.837L307.849 6.954H307.765H305.833V11H304.657ZM305.833 6.03H307.737C308.493 6.03 309.044 5.848 309.389 5.484C309.734 5.12 309.907 4.65333 309.907 4.084C309.907 3.50533 309.734 3.048 309.389 2.712C309.053 2.36667 308.498 2.194 307.723 2.194H305.833V6.03ZM315.584 11.168C314.921 11.168 314.333 11.0187 313.82 10.72C313.307 10.412 312.901 9.98733 312.602 9.446C312.313 8.90467 312.168 8.26533 312.168 7.528C312.168 6.8 312.313 6.16533 312.602 5.624C312.891 5.07333 313.293 4.64867 313.806 4.35C314.329 4.042 314.931 3.888 315.612 3.888C316.284 3.888 316.863 4.042 317.348 4.35C317.843 4.64867 318.221 5.04533 318.482 5.54C318.743 6.03467 318.874 6.56667 318.874 7.136C318.874 7.23867 318.869 7.34133 318.86 7.444C318.86 7.54667 318.86 7.66333 318.86 7.794H313.33C313.358 8.326 313.479 8.76933 313.694 9.124C313.918 9.46933 314.193 9.73067 314.52 9.908C314.856 10.0853 315.211 10.174 315.584 10.174C316.069 10.174 316.475 10.062 316.802 9.838C317.129 9.614 317.367 9.31067 317.516 8.928H318.678C318.491 9.572 318.132 10.1087 317.6 10.538C317.077 10.958 316.405 11.168 315.584 11.168ZM315.584 4.882C315.024 4.882 314.525 5.05467 314.086 5.4C313.657 5.736 313.409 6.23067 313.344 6.884H317.712C317.684 6.25867 317.469 5.76867 317.068 5.414C316.667 5.05933 316.172 4.882 315.584 4.882ZM320.433 14.08V4.056H321.497L321.609 5.204C321.833 4.868 322.15 4.56467 322.561 4.294C322.981 4.02333 323.513 3.888 324.157 3.888C324.847 3.888 325.449 4.04667 325.963 4.364C326.476 4.68133 326.873 5.11533 327.153 5.666C327.442 6.21667 327.587 6.842 327.587 7.542C327.587 8.242 327.442 8.86733 327.153 9.418C326.873 9.95933 326.471 10.3887 325.949 10.706C325.435 11.014 324.833 11.168 324.143 11.168C323.573 11.168 323.065 11.0513 322.617 10.818C322.178 10.5847 321.842 10.258 321.609 9.838V14.08H320.433ZM324.017 10.146C324.483 10.146 324.894 10.0387 325.249 9.824C325.603 9.6 325.883 9.292 326.089 8.9C326.294 8.508 326.397 8.05067 326.397 7.528C326.397 7.00533 326.294 6.548 326.089 6.156C325.883 5.764 325.603 5.46067 325.249 5.246C324.894 5.022 324.483 4.91 324.017 4.91C323.55 4.91 323.139 5.022 322.785 5.246C322.43 5.46067 322.15 5.764 321.945 6.156C321.739 6.548 321.637 7.00533 321.637 7.528C321.637 8.05067 321.739 8.508 321.945 8.9C322.15 9.292 322.43 9.6 322.785 9.824C323.139 10.0387 323.55 10.146 324.017 10.146ZM329.224 11V0.92H330.4V11H329.224ZM333.041 2.516C332.808 2.516 332.612 2.44133 332.453 2.292C332.304 2.13333 332.229 1.93733 332.229 1.704C332.229 1.48 332.304 1.29333 332.453 1.144C332.612 0.994666 332.808 0.92 333.041 0.92C333.265 0.92 333.457 0.994666 333.615 1.144C333.774 1.29333 333.853 1.48 333.853 1.704C333.853 1.93733 333.774 2.13333 333.615 2.292C333.457 2.44133 333.265 2.516 333.041 2.516ZM332.453 11V4.056H333.629V11H332.453ZM338.799 11.168C338.136 11.168 337.548 11.0187 337.035 10.72C336.522 10.412 336.116 9.98733 335.817 9.446C335.528 8.90467 335.383 8.26533 335.383 7.528C335.383 6.8 335.528 6.16533 335.817 5.624C336.106 5.07333 336.508 4.64867 337.021 4.35C337.544 4.042 338.146 3.888 338.827 3.888C339.499 3.888 340.078 4.042 340.563 4.35C341.058 4.64867 341.436 5.04533 341.697 5.54C341.958 6.03467 342.089 6.56667 342.089 7.136C342.089 7.23867 342.084 7.34133 342.075 7.444C342.075 7.54667 342.075 7.66333 342.075 7.794H336.545C336.573 8.326 336.694 8.76933 336.909 9.124C337.133 9.46933 337.408 9.73067 337.735 9.908C338.071 10.0853 338.426 10.174 338.799 10.174C339.284 10.174 339.69 10.062 340.017 9.838C340.344 9.614 340.582 9.31067 340.731 8.928H341.893C341.706 9.572 341.347 10.1087 340.815 10.538C340.292 10.958 339.62 11.168 338.799 11.168ZM338.799 4.882C338.239 4.882 337.74 5.05467 337.301 5.4C336.872 5.736 336.624 6.23067 336.559 6.884H340.927C340.899 6.25867 340.684 5.76867 340.283 5.414C339.882 5.05933 339.387 4.882 338.799 4.882ZM346.798 11.168C346.107 11.168 345.5 11.0093 344.978 10.692C344.464 10.3747 344.063 9.94067 343.774 9.39C343.494 8.83933 343.354 8.214 343.354 7.514C343.354 6.814 343.498 6.19333 343.788 5.652C344.077 5.10133 344.478 4.672 344.992 4.364C345.505 4.04667 346.112 3.888 346.812 3.888C347.381 3.888 347.885 4.00467 348.324 4.238C348.762 4.47133 349.103 4.798 349.346 5.218V0.92H350.522V11H349.458L349.346 9.852C349.122 10.188 348.8 10.4913 348.38 10.762C347.96 11.0327 347.432 11.168 346.798 11.168ZM346.924 10.146C347.39 10.146 347.801 10.0387 348.156 9.824C348.52 9.6 348.8 9.292 348.996 8.9C349.201 8.508 349.304 8.05067 349.304 7.528C349.304 7.00533 349.201 6.548 348.996 6.156C348.8 5.764 348.52 5.46067 348.156 5.246C347.801 5.022 347.39 4.91 346.924 4.91C346.466 4.91 346.056 5.022 345.692 5.246C345.337 5.46067 345.057 5.764 344.852 6.156C344.656 6.548 344.558 7.00533 344.558 7.528C344.558 8.05067 344.656 8.508 344.852 8.9C345.057 9.292 345.337 9.6 345.692 9.824C346.056 10.0387 346.466 10.146 346.924 10.146Z" fill="#2A2B2A"/>
<path d="M288.036 175V165.2H289.212V175H288.036ZM291.598 175V169.05H290.548V168.056H291.598V166.852C291.598 166.18 291.766 165.69 292.102 165.382C292.438 165.074 292.928 164.92 293.572 164.92H294.272V165.928H293.754C293.399 165.928 293.147 166.003 292.998 166.152C292.849 166.292 292.774 166.535 292.774 166.88V168.056H294.482V169.05H292.774V175H291.598ZM299.657 175V165.2H300.833L306.055 173.054V165.2H307.231V175H306.055L300.833 167.146V175H299.657ZM312.403 175.168C311.75 175.168 311.162 175.019 310.639 174.72C310.117 174.421 309.701 174.001 309.393 173.46C309.095 172.909 308.945 172.265 308.945 171.528C308.945 170.791 309.099 170.151 309.407 169.61C309.715 169.059 310.131 168.635 310.653 168.336C311.185 168.037 311.778 167.888 312.431 167.888C313.085 167.888 313.673 168.037 314.195 168.336C314.718 168.635 315.129 169.059 315.427 169.61C315.735 170.151 315.889 170.791 315.889 171.528C315.889 172.265 315.735 172.909 315.427 173.46C315.119 174.001 314.699 174.421 314.167 174.72C313.645 175.019 313.057 175.168 312.403 175.168ZM312.403 174.16C312.805 174.16 313.178 174.062 313.523 173.866C313.869 173.67 314.149 173.376 314.363 172.984C314.578 172.592 314.685 172.107 314.685 171.528C314.685 170.949 314.578 170.464 314.363 170.072C314.158 169.68 313.883 169.386 313.537 169.19C313.192 168.994 312.823 168.896 312.431 168.896C312.03 168.896 311.657 168.994 311.311 169.19C310.966 169.386 310.686 169.68 310.471 170.072C310.257 170.464 310.149 170.949 310.149 171.528C310.149 172.107 310.257 172.592 310.471 172.984C310.686 173.376 310.961 173.67 311.297 173.866C311.643 174.062 312.011 174.16 312.403 174.16ZM321.3 175V165.2H324.464C325.229 165.2 325.854 165.326 326.34 165.578C326.825 165.83 327.184 166.175 327.418 166.614C327.651 167.053 327.768 167.538 327.768 168.07C327.768 168.686 327.6 169.241 327.264 169.736C326.937 170.231 326.424 170.581 325.724 170.786L327.866 175H326.48L324.492 170.954H324.408H322.476V175H321.3ZM322.476 170.03H324.38C325.136 170.03 325.686 169.848 326.032 169.484C326.377 169.12 326.55 168.653 326.55 168.084C326.55 167.505 326.377 167.048 326.032 166.712C325.696 166.367 325.14 166.194 324.366 166.194H322.476V170.03ZM332.227 175.168C331.564 175.168 330.976 175.019 330.463 174.72C329.949 174.412 329.543 173.987 329.245 173.446C328.955 172.905 328.811 172.265 328.811 171.528C328.811 170.8 328.955 170.165 329.245 169.624C329.534 169.073 329.935 168.649 330.449 168.35C330.971 168.042 331.573 167.888 332.255 167.888C332.927 167.888 333.505 168.042 333.991 168.35C334.485 168.649 334.863 169.045 335.125 169.54C335.386 170.035 335.517 170.567 335.517 171.136C335.517 171.239 335.512 171.341 335.503 171.444C335.503 171.547 335.503 171.663 335.503 171.794H329.973C330.001 172.326 330.122 172.769 330.337 173.124C330.561 173.469 330.836 173.731 331.163 173.908C331.499 174.085 331.853 174.174 332.227 174.174C332.712 174.174 333.118 174.062 333.445 173.838C333.771 173.614 334.009 173.311 334.159 172.928H335.321C335.134 173.572 334.775 174.109 334.243 174.538C333.72 174.958 333.048 175.168 332.227 175.168ZM332.227 168.882C331.667 168.882 331.167 169.055 330.729 169.4C330.299 169.736 330.052 170.231 329.987 170.884H334.355C334.327 170.259 334.112 169.769 333.711 169.414C333.309 169.059 332.815 168.882 332.227 168.882ZM337.075 178.08V168.056H338.139L338.251 169.204C338.475 168.868 338.793 168.565 339.203 168.294C339.623 168.023 340.155 167.888 340.799 167.888C341.49 167.888 342.092 168.047 342.605 168.364C343.119 168.681 343.515 169.115 343.795 169.666C344.085 170.217 344.229 170.842 344.229 171.542C344.229 172.242 344.085 172.867 343.795 173.418C343.515 173.959 343.114 174.389 342.591 174.706C342.078 175.014 341.476 175.168 340.785 175.168C340.216 175.168 339.707 175.051 339.259 174.818C338.821 174.585 338.485 174.258 338.251 173.838V178.08H337.075ZM340.659 174.146C341.126 174.146 341.537 174.039 341.891 173.824C342.246 173.6 342.526 173.292 342.731 172.9C342.937 172.508 343.039 172.051 343.039 171.528C343.039 171.005 342.937 170.548 342.731 170.156C342.526 169.764 342.246 169.461 341.891 169.246C341.537 169.022 341.126 168.91 340.659 168.91C340.193 168.91 339.782 169.022 339.427 169.246C339.073 169.461 338.793 169.764 338.587 170.156C338.382 170.548 338.279 171.005 338.279 171.528C338.279 172.051 338.382 172.508 338.587 172.9C338.793 173.292 339.073 173.6 339.427 173.824C339.782 174.039 340.193 174.146 340.659 174.146ZM345.866 175V164.92H347.042V175H345.866ZM349.726 178.08L351.448 174.328H351.042L348.284 168.056H349.558L351.854 173.46L354.29 168.056H355.508L350.958 178.08H349.726Z" fill="#2A2B2A"/>
<path d="M288.036 331V321.2H289.212V331H288.036ZM291.598 331V325.05H290.548V324.056H291.598V322.852C291.598 322.18 291.766 321.69 292.102 321.382C292.438 321.074 292.928 320.92 293.572 320.92H294.272V321.928H293.754C293.399 321.928 293.147 322.003 292.998 322.152C292.849 322.292 292.774 322.535 292.774 322.88V324.056H294.482V325.05H292.774V331H291.598ZM299.657 331V321.2H302.821C303.586 321.2 304.212 321.326 304.697 321.578C305.182 321.83 305.542 322.175 305.775 322.614C306.008 323.053 306.125 323.538 306.125 324.07C306.125 324.686 305.957 325.241 305.621 325.736C305.294 326.231 304.781 326.581 304.081 326.786L306.223 331H304.837L302.849 326.954H302.765H300.833V331H299.657ZM300.833 326.03H302.737C303.493 326.03 304.044 325.848 304.389 325.484C304.734 325.12 304.907 324.653 304.907 324.084C304.907 323.505 304.734 323.048 304.389 322.712C304.053 322.367 303.498 322.194 302.723 322.194H300.833V326.03ZM310.584 331.168C309.921 331.168 309.333 331.019 308.82 330.72C308.307 330.412 307.901 329.987 307.602 329.446C307.313 328.905 307.168 328.265 307.168 327.528C307.168 326.8 307.313 326.165 307.602 325.624C307.891 325.073 308.293 324.649 308.806 324.35C309.329 324.042 309.931 323.888 310.612 323.888C311.284 323.888 311.863 324.042 312.348 324.35C312.843 324.649 313.221 325.045 313.482 325.54C313.743 326.035 313.874 326.567 313.874 327.136C313.874 327.239 313.869 327.341 313.86 327.444C313.86 327.547 313.86 327.663 313.86 327.794H308.33C308.358 328.326 308.479 328.769 308.694 329.124C308.918 329.469 309.193 329.731 309.52 329.908C309.856 330.085 310.211 330.174 310.584 330.174C311.069 330.174 311.475 330.062 311.802 329.838C312.129 329.614 312.367 329.311 312.516 328.928H313.678C313.491 329.572 313.132 330.109 312.6 330.538C312.077 330.958 311.405 331.168 310.584 331.168ZM310.584 324.882C310.024 324.882 309.525 325.055 309.086 325.4C308.657 325.736 308.409 326.231 308.344 326.884H312.712C312.684 326.259 312.469 325.769 312.068 325.414C311.667 325.059 311.172 324.882 310.584 324.882ZM315.433 334.08V324.056H316.497L316.609 325.204C316.833 324.868 317.15 324.565 317.561 324.294C317.981 324.023 318.513 323.888 319.157 323.888C319.847 323.888 320.449 324.047 320.963 324.364C321.476 324.681 321.873 325.115 322.153 325.666C322.442 326.217 322.587 326.842 322.587 327.542C322.587 328.242 322.442 328.867 322.153 329.418C321.873 329.959 321.471 330.389 320.949 330.706C320.435 331.014 319.833 331.168 319.143 331.168C318.573 331.168 318.065 331.051 317.617 330.818C317.178 330.585 316.842 330.258 316.609 329.838V334.08H315.433ZM319.017 330.146C319.483 330.146 319.894 330.039 320.249 329.824C320.603 329.6 320.883 329.292 321.089 328.9C321.294 328.508 321.397 328.051 321.397 327.528C321.397 327.005 321.294 326.548 321.089 326.156C320.883 325.764 320.603 325.461 320.249 325.246C319.894 325.022 319.483 324.91 319.017 324.91C318.55 324.91 318.139 325.022 317.785 325.246C317.43 325.461 317.15 325.764 316.945 326.156C316.739 326.548 316.637 327.005 316.637 327.528C316.637 328.051 316.739 328.508 316.945 328.9C317.15 329.292 317.43 329.6 317.785 329.824C318.139 330.039 318.55 330.146 319.017 330.146ZM324.224 331V320.92H325.4V331H324.224ZM328.041 322.516C327.808 322.516 327.612 322.441 327.453 322.292C327.304 322.133 327.229 321.937 327.229 321.704C327.229 321.48 327.304 321.293 327.453 321.144C327.612 320.995 327.808 320.92 328.041 320.92C328.265 320.92 328.457 320.995 328.615 321.144C328.774 321.293 328.853 321.48 328.853 321.704C328.853 321.937 328.774 322.133 328.615 322.292C328.457 322.441 328.265 322.516 328.041 322.516ZM327.453 331V324.056H328.629V331H327.453ZM333.799 331.168C333.136 331.168 332.548 331.019 332.035 330.72C331.522 330.412 331.116 329.987 330.817 329.446C330.528 328.905 330.383 328.265 330.383 327.528C330.383 326.8 330.528 326.165 330.817 325.624C331.106 325.073 331.508 324.649 332.021 324.35C332.544 324.042 333.146 323.888 333.827 323.888C334.499 323.888 335.078 324.042 335.563 324.35C336.058 324.649 336.436 325.045 336.697 325.54C336.958 326.035 337.089 326.567 337.089 327.136C337.089 327.239 337.084 327.341 337.075 327.444C337.075 327.547 337.075 327.663 337.075 327.794H331.545C331.573 328.326 331.694 328.769 331.909 329.124C332.133 329.469 332.408 329.731 332.735 329.908C333.071 330.085 333.426 330.174 333.799 330.174C334.284 330.174 334.69 330.062 335.017 329.838C335.344 329.614 335.582 329.311 335.731 328.928H336.893C336.706 329.572 336.347 330.109 335.815 330.538C335.292 330.958 334.62 331.168 333.799 331.168ZM333.799 324.882C333.239 324.882 332.74 325.055 332.301 325.4C331.872 325.736 331.624 326.231 331.559 326.884H335.927C335.899 326.259 335.684 325.769 335.283 325.414C334.882 325.059 334.387 324.882 333.799 324.882ZM341.798 331.168C341.107 331.168 340.5 331.009 339.978 330.692C339.464 330.375 339.063 329.941 338.774 329.39C338.494 328.839 338.354 328.214 338.354 327.514C338.354 326.814 338.498 326.193 338.788 325.652C339.077 325.101 339.478 324.672 339.992 324.364C340.505 324.047 341.112 323.888 341.812 323.888C342.381 323.888 342.885 324.005 343.324 324.238C343.762 324.471 344.103 324.798 344.346 325.218V320.92H345.522V331H344.458L344.346 329.852C344.122 330.188 343.8 330.491 343.38 330.762C342.96 331.033 342.432 331.168 341.798 331.168ZM341.924 330.146C342.39 330.146 342.801 330.039 343.156 329.824C343.52 329.6 343.8 329.292 343.996 328.9C344.201 328.508 344.304 328.051 344.304 327.528C344.304 327.005 344.201 326.548 343.996 326.156C343.8 325.764 343.52 325.461 343.156 325.246C342.801 325.022 342.39 324.91 341.924 324.91C341.466 324.91 341.056 325.022 340.692 325.246C340.337 325.461 340.057 325.764 339.852 326.156C339.656 326.548 339.558 327.005 339.558 327.528C339.558 328.051 339.656 328.508 339.852 328.9C340.057 329.292 340.337 329.6 340.692 329.824C341.056 330.039 341.466 330.146 341.924 330.146Z" fill="#2A2B2A"/>
<path d="M288.036 495V485.2H289.212V495H288.036ZM291.598 495V489.05H290.548V488.056H291.598V486.852C291.598 486.18 291.766 485.69 292.102 485.382C292.438 485.074 292.928 484.92 293.572 484.92H294.272V485.928H293.754C293.399 485.928 293.147 486.003 292.998 486.152C292.849 486.292 292.774 486.535 292.774 486.88V488.056H294.482V489.05H292.774V495H291.598ZM299.657 495V485.2H302.821C303.586 485.2 304.212 485.326 304.697 485.578C305.182 485.83 305.542 486.175 305.775 486.614C306.008 487.053 306.125 487.538 306.125 488.07C306.125 488.686 305.957 489.241 305.621 489.736C305.294 490.231 304.781 490.581 304.081 490.786L306.223 495H304.837L302.849 490.954H302.765H300.833V495H299.657ZM300.833 490.03H302.737C303.493 490.03 304.044 489.848 304.389 489.484C304.734 489.12 304.907 488.653 304.907 488.084C304.907 487.505 304.734 487.048 304.389 486.712C304.053 486.367 303.498 486.194 302.723 486.194H300.833V490.03ZM310.584 495.168C309.921 495.168 309.333 495.019 308.82 494.72C308.307 494.412 307.901 493.987 307.602 493.446C307.313 492.905 307.168 492.265 307.168 491.528C307.168 490.8 307.313 490.165 307.602 489.624C307.891 489.073 308.293 488.649 308.806 488.35C309.329 488.042 309.931 487.888 310.612 487.888C311.284 487.888 311.863 488.042 312.348 488.35C312.843 488.649 313.221 489.045 313.482 489.54C313.743 490.035 313.874 490.567 313.874 491.136C313.874 491.239 313.869 491.341 313.86 491.444C313.86 491.547 313.86 491.663 313.86 491.794H308.33C308.358 492.326 308.479 492.769 308.694 493.124C308.918 493.469 309.193 493.731 309.52 493.908C309.856 494.085 310.211 494.174 310.584 494.174C311.069 494.174 311.475 494.062 311.802 493.838C312.129 493.614 312.367 493.311 312.516 492.928H313.678C313.491 493.572 313.132 494.109 312.6 494.538C312.077 494.958 311.405 495.168 310.584 495.168ZM310.584 488.882C310.024 488.882 309.525 489.055 309.086 489.4C308.657 489.736 308.409 490.231 308.344 490.884H312.712C312.684 490.259 312.469 489.769 312.068 489.414C311.667 489.059 311.172 488.882 310.584 488.882ZM315.433 498.08V488.056H316.497L316.609 489.204C316.833 488.868 317.15 488.565 317.561 488.294C317.981 488.023 318.513 487.888 319.157 487.888C319.847 487.888 320.449 488.047 320.963 488.364C321.476 488.681 321.873 489.115 322.153 489.666C322.442 490.217 322.587 490.842 322.587 491.542C322.587 492.242 322.442 492.867 322.153 493.418C321.873 493.959 321.471 494.389 320.949 494.706C320.435 495.014 319.833 495.168 319.143 495.168C318.573 495.168 318.065 495.051 317.617 494.818C317.178 494.585 316.842 494.258 316.609 493.838V498.08H315.433ZM319.017 494.146C319.483 494.146 319.894 494.039 320.249 493.824C320.603 493.6 320.883 493.292 321.089 492.9C321.294 492.508 321.397 492.051 321.397 491.528C321.397 491.005 321.294 490.548 321.089 490.156C320.883 489.764 320.603 489.461 320.249 489.246C319.894 489.022 319.483 488.91 319.017 488.91C318.55 488.91 318.139 489.022 317.785 489.246C317.43 489.461 317.15 489.764 316.945 490.156C316.739 490.548 316.637 491.005 316.637 491.528C316.637 492.051 316.739 492.508 316.945 492.9C317.15 493.292 317.43 493.6 317.785 493.824C318.139 494.039 318.55 494.146 319.017 494.146ZM324.224 495V484.92H325.4V495H324.224ZM328.041 486.516C327.808 486.516 327.612 486.441 327.453 486.292C327.304 486.133 327.229 485.937 327.229 485.704C327.229 485.48 327.304 485.293 327.453 485.144C327.612 484.995 327.808 484.92 328.041 484.92C328.265 484.92 328.457 484.995 328.615 485.144C328.774 485.293 328.853 485.48 328.853 485.704C328.853 485.937 328.774 486.133 328.615 486.292C328.457 486.441 328.265 486.516 328.041 486.516ZM327.453 495V488.056H328.629V495H327.453ZM333.799 495.168C333.136 495.168 332.548 495.019 332.035 494.72C331.522 494.412 331.116 493.987 330.817 493.446C330.528 492.905 330.383 492.265 330.383 491.528C330.383 490.8 330.528 490.165 330.817 489.624C331.106 489.073 331.508 488.649 332.021 488.35C332.544 488.042 333.146 487.888 333.827 487.888C334.499 487.888 335.078 488.042 335.563 488.35C336.058 488.649 336.436 489.045 336.697 489.54C336.958 490.035 337.089 490.567 337.089 491.136C337.089 491.239 337.084 491.341 337.075 491.444C337.075 491.547 337.075 491.663 337.075 491.794H331.545C331.573 492.326 331.694 492.769 331.909 493.124C332.133 493.469 332.408 493.731 332.735 493.908C333.071 494.085 333.426 494.174 333.799 494.174C334.284 494.174 334.69 494.062 335.017 493.838C335.344 493.614 335.582 493.311 335.731 492.928H336.893C336.706 493.572 336.347 494.109 335.815 494.538C335.292 494.958 334.62 495.168 333.799 495.168ZM333.799 488.882C333.239 488.882 332.74 489.055 332.301 489.4C331.872 489.736 331.624 490.231 331.559 490.884H335.927C335.899 490.259 335.684 489.769 335.283 489.414C334.882 489.059 334.387 488.882 333.799 488.882ZM341.798 495.168C341.107 495.168 340.5 495.009 339.978 494.692C339.464 494.375 339.063 493.941 338.774 493.39C338.494 492.839 338.354 492.214 338.354 491.514C338.354 490.814 338.498 490.193 338.788 489.652C339.077 489.101 339.478 488.672 339.992 488.364C340.505 488.047 341.112 487.888 341.812 487.888C342.381 487.888 342.885 488.005 343.324 488.238C343.762 488.471 344.103 488.798 344.346 489.218V484.92H345.522V495H344.458L344.346 493.852C344.122 494.188 343.8 494.491 343.38 494.762C342.96 495.033 342.432 495.168 341.798 495.168ZM341.924 494.146C342.39 494.146 342.801 494.039 343.156 493.824C343.52 493.6 343.8 493.292 343.996 492.9C344.201 492.508 344.304 492.051 344.304 491.528C344.304 491.005 344.201 490.548 343.996 490.156C343.8 489.764 343.52 489.461 343.156 489.246C342.801 489.022 342.39 488.91 341.924 488.91C341.466 488.91 341.056 489.022 340.692 489.246C340.337 489.461 340.057 489.764 339.852 490.156C339.656 490.548 339.558 491.005 339.558 491.528C339.558 492.051 339.656 492.508 339.852 492.9C340.057 493.292 340.337 493.6 340.692 493.824C341.056 494.039 341.466 494.146 341.924 494.146Z" fill="#2A2B2A"/>
</svg>
