<svg width="16" height="16" viewBox="0 0 16 16" fill="none" xmlns="http://www.w3.org/2000/svg">
<path fill-rule="evenodd" clip-rule="evenodd" d="M1.15328 12.1742L0.0402878 15.1421C-0.00245068 15.2563 -0.0114093 15.3804 0.0144821 15.4996C0.0403735 15.6188 0.100021 15.728 0.186299 15.8142C0.272578 15.9004 0.381843 15.9599 0.501043 15.9857C0.620243 16.0114 0.744342 16.0023 0.858517 15.9595L3.82566 14.8465C4.16527 14.7193 4.47372 14.5209 4.73028 14.2646L13.3251 5.66993C13.3251 5.66993 13.0252 4.77125 12.1274 3.87256C11.2295 2.97472 10.33 2.67488 10.33 2.67488L1.73519 11.2696C1.47889 11.5261 1.28048 11.8346 1.15328 12.1742ZM11.5285 1.47635L12.7 0.30493C12.91 0.09487 13.1904 -0.0389586 13.4835 0.0101684C13.896 0.0779297 14.527 0.282907 15.1216 0.87836C15.7171 1.47381 15.9221 2.10399 15.9898 2.51649C16.039 2.80956 15.9051 3.08992 15.6951 3.29998L14.5228 4.4714C14.5228 4.4714 14.2238 3.57356 13.3251 2.67573C12.4272 1.7762 11.5285 1.47635 11.5285 1.47635Z" fill="#FFFFFB"/>
</svg>
